<?xml version="1.0" encoding="UTF-8"?>
<svg viewBox="0 0 102 102" xmlns="http://www.w3.org/2000/svg" fill="none">
    <path d="m1.8667 33.196c1.031 0 1.8667 0.8362 1.8667 1.8677 0 1.0314-0.83575 1.8676-1.8667 1.8676-1.031 0-1.8667-0.8362-1.8667-1.8676-4.5064e-8 -1.0315 0.83574-1.8677 1.8667-1.8677z"
          fill="#fff" fill-opacity="0.08"/>
    <path d="m18.294 33.196c1.031 0 1.8667 0.8362 1.8667 1.8677 0 1.0314-0.8357 1.8676-1.8667 1.8676-1.0309 0-1.8667-0.8362-1.8667-1.8676 0-1.0315 0.8358-1.8677 1.8667-1.8677z"
          fill="#fff" fill-opacity="0.08"/>
    <path d="m34.721 33.195c1.031 0 1.8667 0.8361 1.8667 1.8676s-0.8357 1.8677-1.8667 1.8677c-1.0309 0-1.8667-0.8362-1.8667-1.8677s0.8358-1.8676 1.8667-1.8676z"
          fill="#fff" fill-opacity="0.08"/>
    <path d="m50.934 33.195c1.0309 0 1.8667 0.8361 1.8667 1.8676s-0.8358 1.8677-1.8667 1.8677c-1.031 0-1.8667-0.8362-1.8667-1.8677s0.8357-1.8676 1.8667-1.8676z"
          fill="#fff" fill-opacity="0.08"/>
    <path d="m1.8667 16.76c1.031 0 1.8667 0.8361 1.8667 1.8676s-0.83575 1.8676-1.8667 1.8676c-1.031 0-1.8667-0.8361-1.8667-1.8676s0.83574-1.8676 1.8667-1.8676z"
          fill="#fff" fill-opacity="0.08"/>
    <path d="m18.294 16.76c1.031 0 1.8667 0.8361 1.8667 1.8676s-0.8357 1.8676-1.8667 1.8676c-1.0309 0-1.8667-0.8361-1.8667-1.8676s0.8358-1.8676 1.8667-1.8676z"
          fill="#fff" fill-opacity="0.08"/>
    <path d="m34.721 16.76c1.031 0 1.8667 0.8361 1.8667 1.8676s-0.8357 1.8676-1.8667 1.8676c-1.0309 0-1.8667-0.8361-1.8667-1.8676s0.8358-1.8676 1.8667-1.8676z"
          fill="#fff" fill-opacity="0.08"/>
    <path d="m50.934 16.76c1.0309 0 1.8667 0.8361 1.8667 1.8676s-0.8358 1.8676-1.8667 1.8676c-1.031 0-1.8667-0.8361-1.8667-1.8676s0.8357-1.8676 1.8667-1.8676z"
          fill="#fff" fill-opacity="0.08"/>
    <path d="m1.8667 0.32495c1.031 0 1.8667 0.8362 1.8667 1.8677 0 1.0315-0.83575 1.8676-1.8667 1.8676-1.031 0-1.8667-0.83616-1.8667-1.8676-4.5064e-8 -1.0315 0.83574-1.8677 1.8667-1.8677z"
          fill="#fff" fill-opacity="0.08"/>
    <path d="m18.294 0.32495c1.031 0 1.8667 0.8362 1.8667 1.8677 0 1.0315-0.8357 1.8676-1.8667 1.8676-1.0309 0-1.8667-0.83616-1.8667-1.8676 0-1.0315 0.8358-1.8677 1.8667-1.8677z"
          fill="#fff" fill-opacity="0.08"/>
    <path d="m34.721 0.3253c1.031 0 1.8667 0.83617 1.8667 1.8676 0 1.0315-0.8357 1.8676-1.8667 1.8676-1.0309 0-1.8667-0.83616-1.8667-1.8676 0-1.0315 0.8358-1.8676 1.8667-1.8676z"
          fill="#fff" fill-opacity="0.08"/>
    <path d="m50.934 0.3253c1.0309 0 1.8667 0.83617 1.8667 1.8676 0 1.0315-0.8358 1.8676-1.8667 1.8676-1.031 0-1.8667-0.83616-1.8667-1.8676 0-1.0315 0.8357-1.8676 1.8667-1.8676z"
          fill="#fff" fill-opacity="0.08"/>
    <path d="m66.904 33.196c1.0309 0 1.8667 0.8362 1.8667 1.8677 0 1.0314-0.8358 1.8676-1.8667 1.8676-1.031 0-1.8667-0.8362-1.8667-1.8676 0-1.0315 0.8357-1.8677 1.8667-1.8677z"
          fill="#fff" fill-opacity="0.08"/>
    <path d="m83.331 33.196c1.0309 0 1.8667 0.8362 1.8667 1.8677 0 1.0314-0.8358 1.8676-1.8667 1.8676-1.031 0-1.8667-0.8362-1.8667-1.8676 0-1.0315 0.8357-1.8677 1.8667-1.8677z"
          fill="#fff" fill-opacity="0.08"/>
    <path d="m99.758 33.196c1.0314 0 1.8664 0.8362 1.8664 1.8677 0 1.0314-0.835 1.8676-1.8664 1.8676-1.031 0-1.8667-0.8362-1.8667-1.8676 0-1.0315 0.8357-1.8677 1.8667-1.8677z"
          fill="#fff" fill-opacity="0.08"/>
    <path d="m66.904 16.76c1.0309 0 1.8667 0.8361 1.8667 1.8676s-0.8358 1.8676-1.8667 1.8676c-1.031 0-1.8667-0.8361-1.8667-1.8676s0.8357-1.8676 1.8667-1.8676z"
          fill="#fff" fill-opacity="0.08"/>
    <path d="m83.331 16.76c1.0309 0 1.8667 0.8361 1.8667 1.8676s-0.8358 1.8676-1.8667 1.8676c-1.031 0-1.8667-0.8361-1.8667-1.8676s0.8357-1.8676 1.8667-1.8676z"
          fill="#fff" fill-opacity="0.08"/>
    <path d="m99.758 16.76c1.0314 0 1.8664 0.8361 1.8664 1.8676s-0.835 1.8676-1.8664 1.8676c-1.031 0-1.8667-0.8361-1.8667-1.8676s0.8357-1.8676 1.8667-1.8676z"
          fill="#fff" fill-opacity="0.08"/>
    <path d="m66.904 0.32497c1.0309 0 1.8667 0.83618 1.8667 1.8676 0 1.0315-0.8358 1.8676-1.8667 1.8676-1.031 0-1.8667-0.83616-1.8667-1.8676 0-1.0315 0.8357-1.8676 1.8667-1.8676z"
          fill="#fff" fill-opacity="0.08"/>
    <path d="m83.331 0.32495c1.0309 0 1.8667 0.8362 1.8667 1.8677 0 1.0315-0.8358 1.8676-1.8667 1.8676-1.031 0-1.8667-0.83616-1.8667-1.8676 0-1.0315 0.8357-1.8677 1.8667-1.8677z"
          fill="#fff" fill-opacity="0.08"/>
    <path d="m99.758 0.32495c1.0314 0 1.8664 0.8362 1.8664 1.8677 0 1.0315-0.835 1.8676-1.8664 1.8676-1.031 0-1.8667-0.83616-1.8667-1.8676 0-1.0315 0.8357-1.8677 1.8667-1.8677z"
          fill="#fff" fill-opacity="0.08"/>
    <path d="m1.8667 82.203c1.031 0 1.8667 0.8361 1.8667 1.8676s-0.83575 1.8677-1.8667 1.8677c-1.031 0-1.8667-0.8362-1.8667-1.8677s0.83574-1.8676 1.8667-1.8676z"
          fill="#fff" fill-opacity="0.08"/>
    <path d="m18.294 82.203c1.031 0 1.8667 0.8361 1.8667 1.8676s-0.8357 1.8677-1.8667 1.8677c-1.0309 0-1.8667-0.8362-1.8667-1.8677s0.8358-1.8676 1.8667-1.8676z"
          fill="#fff" fill-opacity="0.08"/>
    <path d="m34.721 82.203c1.031 0 1.8667 0.8361 1.8667 1.8676s-0.8357 1.8676-1.8667 1.8676c-1.0309 0-1.8667-0.8361-1.8667-1.8676s0.8358-1.8676 1.8667-1.8676z"
          fill="#fff" fill-opacity="0.08"/>
    <path d="m50.934 82.203c1.0309 0 1.8667 0.8361 1.8667 1.8676s-0.8358 1.8676-1.8667 1.8676c-1.031 0-1.8667-0.8361-1.8667-1.8676s0.8357-1.8676 1.8667-1.8676z"
          fill="#fff" fill-opacity="0.08"/>
    <path d="m1.8667 65.768c1.031 0 1.8667 0.8362 1.8667 1.8676 0 1.0315-0.83575 1.8677-1.8667 1.8677-1.031 0-1.8667-0.8362-1.8667-1.8677-4.5064e-8 -1.0314 0.83574-1.8676 1.8667-1.8676z"
          fill="#fff" fill-opacity="0.08"/>
    <path d="m18.294 65.768c1.031 0 1.8667 0.8362 1.8667 1.8676 0 1.0315-0.8357 1.8677-1.8667 1.8677-1.0309 0-1.8667-0.8362-1.8667-1.8677 0-1.0314 0.8358-1.8676 1.8667-1.8676z"
          fill="#fff" fill-opacity="0.08"/>
    <path d="m34.721 65.767c1.031 0 1.8667 0.8362 1.8667 1.8676 0 1.0315-0.8357 1.8677-1.8667 1.8677-1.0309 0-1.8667-0.8362-1.8667-1.8677 0-1.0314 0.8358-1.8676 1.8667-1.8676z"
          fill="#fff" fill-opacity="0.08"/>
    <path d="m50.934 65.767c1.0309 0 1.8667 0.8362 1.8667 1.8676 0 1.0315-0.8358 1.8677-1.8667 1.8677-1.031 0-1.8667-0.8362-1.8667-1.8677 0-1.0314 0.8357-1.8676 1.8667-1.8676z"
          fill="#fff" fill-opacity="0.08"/>
    <path d="m1.8667 98.264c1.031 0 1.8667 0.8361 1.8667 1.8676 0 1.031-0.83575 1.868-1.8667 1.868-1.031 0-1.8667-0.837-1.8667-1.868-4.5064e-8 -1.0315 0.83574-1.8676 1.8667-1.8676z"
          fill="#fff" fill-opacity="0.08"/>
    <path d="m1.8667 49.332c1.031 0 1.8667 0.8362 1.8667 1.8676 0 1.0315-0.83575 1.8677-1.8667 1.8677-1.031 0-1.8667-0.8362-1.8667-1.8677-4.5064e-8 -1.0314 0.83574-1.8676 1.8667-1.8676z"
          fill="#fff" fill-opacity="0.08"/>
    <path d="m18.294 98.264c1.031 0 1.8667 0.8361 1.8667 1.8676 0 1.031-0.8357 1.868-1.8667 1.868-1.0309 0-1.8667-0.837-1.8667-1.868 0-1.0315 0.8358-1.8676 1.8667-1.8676z"
          fill="#fff" fill-opacity="0.08"/>
    <path d="m18.294 49.332c1.031 0 1.8667 0.8362 1.8667 1.8676 0 1.0315-0.8357 1.8677-1.8667 1.8677-1.0309 0-1.8667-0.8362-1.8667-1.8677 0-1.0314 0.8358-1.8676 1.8667-1.8676z"
          fill="#fff" fill-opacity="0.08"/>
    <path d="m34.721 98.265c1.031 0 1.8667 0.8361 1.8667 1.8673 0 1.032-0.8357 1.868-1.8667 1.868-1.0309 0-1.8667-0.836-1.8667-1.868 0-1.0312 0.8358-1.8673 1.8667-1.8673z"
          fill="#fff" fill-opacity="0.08"/>
    <path d="m50.934 98.265c1.0309 0 1.8667 0.8361 1.8667 1.8673 0 1.032-0.8358 1.868-1.8667 1.868-1.031 0-1.8667-0.836-1.8667-1.868 0-1.0312 0.8357-1.8673 1.8667-1.8673z"
          fill="#fff" fill-opacity="0.08"/>
    <path d="m34.721 49.333c1.031 0 1.8667 0.8361 1.8667 1.8676s-0.8357 1.8676-1.8667 1.8676c-1.0309 0-1.8667-0.8361-1.8667-1.8676s0.8358-1.8676 1.8667-1.8676z"
          fill="#fff" fill-opacity="0.08"/>
    <path d="m50.934 49.333c1.0309 0 1.8667 0.8361 1.8667 1.8676s-0.8358 1.8676-1.8667 1.8676c-1.031 0-1.8667-0.8361-1.8667-1.8676s0.8357-1.8676 1.8667-1.8676z"
          fill="#fff" fill-opacity="0.08"/>
    <path d="m66.904 82.203c1.0309 0 1.8667 0.8362 1.8667 1.8676 0 1.0315-0.8358 1.8677-1.8667 1.8677-1.031 0-1.8667-0.8362-1.8667-1.8677 0-1.0314 0.8357-1.8676 1.8667-1.8676z"
          fill="#fff" fill-opacity="0.08"/>
    <path d="m83.331 82.203c1.0309 0 1.8667 0.8362 1.8667 1.8676 0 1.0315-0.8358 1.8677-1.8667 1.8677-1.031 0-1.8667-0.8362-1.8667-1.8677 0-1.0314 0.8357-1.8676 1.8667-1.8676z"
          fill="#fff" fill-opacity="0.08"/>
    <path d="m99.758 82.203c1.0314 0 1.8664 0.8361 1.8664 1.8676s-0.835 1.8677-1.8664 1.8677c-1.031 0-1.8667-0.8362-1.8667-1.8677s0.8357-1.8676 1.8667-1.8676z"
          fill="#fff" fill-opacity="0.08"/>
    <path d="m66.904 65.767c1.0309 0 1.8667 0.8362 1.8667 1.8676 0 1.0315-0.8358 1.8677-1.8667 1.8677-1.031 0-1.8667-0.8362-1.8667-1.8677 0-1.0314 0.8357-1.8676 1.8667-1.8676z"
          fill="#fff" fill-opacity="0.08"/>
    <path d="m83.331 65.768c1.0309 0 1.8667 0.8362 1.8667 1.8676 0 1.0315-0.8358 1.8677-1.8667 1.8677-1.031 0-1.8667-0.8362-1.8667-1.8677 0-1.0314 0.8357-1.8676 1.8667-1.8676z"
          fill="#fff" fill-opacity="0.08"/>
    <path d="m99.758 65.768c1.0314 0 1.8664 0.8362 1.8664 1.8676 0 1.0315-0.835 1.8677-1.8664 1.8677-1.031 0-1.8667-0.8362-1.8667-1.8677 0-1.0314 0.8357-1.8676 1.8667-1.8676z"
          fill="#fff" fill-opacity="0.08"/>
    <path d="m66.904 98.264c1.0309 0 1.8667 0.8361 1.8667 1.8676 0 1.031-0.8358 1.868-1.8667 1.868-1.031 0-1.8667-0.837-1.8667-1.868 0-1.0315 0.8357-1.8676 1.8667-1.8676z"
          fill="#fff" fill-opacity="0.08"/>
    <path d="m66.904 49.332c1.0309 0 1.8667 0.8362 1.8667 1.8676 0 1.0315-0.8358 1.8677-1.8667 1.8677-1.031 0-1.8667-0.8362-1.8667-1.8677 0-1.0314 0.8357-1.8676 1.8667-1.8676z"
          fill="#fff" fill-opacity="0.08"/>
    <path d="m83.331 98.264c1.0309 0 1.8667 0.8361 1.8667 1.8676 0 1.031-0.8358 1.868-1.8667 1.868-1.031 0-1.8667-0.837-1.8667-1.868 0-1.0315 0.8357-1.8676 1.8667-1.8676z"
          fill="#fff" fill-opacity="0.08"/>
    <path d="m83.331 49.332c1.0309 0 1.8667 0.8362 1.8667 1.8676 0 1.0315-0.8358 1.8677-1.8667 1.8677-1.031 0-1.8667-0.8362-1.8667-1.8677 0-1.0314 0.8357-1.8676 1.8667-1.8676z"
          fill="#fff" fill-opacity="0.08"/>
    <path d="m99.758 98.264c1.0314 0 1.8664 0.8361 1.8664 1.8676 0 1.031-0.835 1.868-1.8664 1.868-1.031 0-1.8667-0.837-1.8667-1.868 0-1.0315 0.8357-1.8676 1.8667-1.8676z"
          fill="#fff" fill-opacity="0.08"/>
    <path d="m99.758 49.332c1.0314 0 1.8664 0.8362 1.8664 1.8676 0 1.0315-0.835 1.8677-1.8664 1.8677-1.031 0-1.8667-0.8362-1.8667-1.8677 0-1.0314 0.8357-1.8676 1.8667-1.8676z"
          fill="#fff" fill-opacity="0.08"/>
</svg>
