<?xml version="1.0" encoding="UTF-8"?>
<svg viewBox="0 0 35 35" xmlns="http://www.w3.org/2000/svg">
    <path d="m10.773 14.328h-6.9453c-1.75 0-3.1719-1.4219-3.1719-3.1719v-6.9453c0-1.75 1.4219-3.1719 3.1719-3.1719h6.9453c1.75 0 3.1719 1.4219 3.1719 3.1719v6.9453c0 1.75-1.4219 3.1719-3.1719 3.1719zm-6.9453-11.375c-0.65625 0-1.2578 0.54688-1.2578 1.2578v6.9453c0 0.6563 0.54688 1.2579 1.2578 1.2579h6.9453c0.6563 0 1.2579-0.5469 1.2579-1.2579v-6.9453c0-0.65625-0.5469-1.2578-1.2579-1.2578h-6.9453z"
          fill="#fff"/>
    <path d="m31.172 14.328h-6.9453c-1.75 0-3.1719-1.4219-3.1719-3.1719v-6.9453c0-1.75 1.4219-3.1719 3.1719-3.1719h6.9453c1.75 0 3.1719 1.4219 3.1719 3.1719v6.9453c0 1.75-1.4219 3.1719-3.1719 3.1719zm-6.9453-11.375c-0.6563 0-1.2578 0.54688-1.2578 1.2578v6.9453c0 0.6563 0.5468 1.2579 1.2578 1.2579h6.9453c0.6562 0 1.2578-0.5469 1.2578-1.2579v-6.9453c0-0.65625-0.5469-1.2578-1.2578-1.2578h-6.9453z"
          fill="#fff"/>
    <path d="m10.773 33.961h-6.9453c-1.75 0-3.1719-1.4218-3.1719-3.1718v-6.9453c0-1.75 1.4219-3.1719 3.1719-3.1719h6.9453c1.75 0 3.1719 1.4219 3.1719 3.1719v6.9453c0 1.75-1.4219 3.1718-3.1719 3.1718zm-6.9453-11.375c-0.65625 0-1.2578 0.5469-1.2578 1.2579v6.9453c0 0.6562 0.54688 1.2578 1.2578 1.2578h6.9453c0.6563 0 1.2579-0.5469 1.2579-1.2578v-6.9453c0-0.6563-0.5469-1.2579-1.2579-1.2579h-6.9453z"
          fill="#fff"/>
    <path d="m31.172 33.961h-6.9453c-1.75 0-3.1719-1.4218-3.1719-3.1718v-6.9453c0-1.75 1.4219-3.1719 3.1719-3.1719h6.9453c1.75 0 3.1719 1.4219 3.1719 3.1719v6.9453c0 1.75-1.4219 3.1718-3.1719 3.1718zm-6.9453-11.375c-0.6563 0-1.2578 0.5469-1.2578 1.2579v6.9453c0 0.6562 0.5468 1.2578 1.2578 1.2578h6.9453c0.6562 0 1.2578-0.5469 1.2578-1.2578v-6.9453c0-0.6563-0.5469-1.2579-1.2578-1.2579h-6.9453z"
          fill="#fff"/>
</svg>
