<?xml version="1.0" encoding="UTF-8"?>
<svg viewBox="0 0 134 106" xmlns="http://www.w3.org/2000/svg">
    <circle transform="rotate(-90 1.6667 104)" cx="1.6667" cy="104" r="1.6667" fill="#fff"/>
    <circle transform="rotate(-90 16.333 104)" cx="16.333" cy="104" r="1.6667" fill="#fff"/>
    <circle transform="rotate(-90 31 104)" cx="31" cy="104" r="1.6667" fill="#fff"/>
    <circle transform="rotate(-90 45.667 104)" cx="45.667" cy="104" r="1.6667" fill="#fff"/>
    <circle transform="rotate(-90 60.333 104)" cx="60.333" cy="104" r="1.6667" fill="#fff"/>
    <circle transform="rotate(-90 88.667 104)" cx="88.667" cy="104" r="1.6667" fill="#fff"/>
    <circle transform="rotate(-90 117.67 104)" cx="117.67" cy="104" r="1.6667" fill="#fff"/>
    <circle transform="rotate(-90 74.667 104)" cx="74.667" cy="104" r="1.6667" fill="#fff"/>
    <circle transform="rotate(-90 103 104)" cx="103" cy="104" r="1.6667" fill="#fff"/>
    <circle transform="rotate(-90 132 104)" cx="132" cy="104" r="1.6667" fill="#fff"/>
    <circle transform="rotate(-90 1.6667 89.333)" cx="1.6667" cy="89.333" r="1.6667" fill="#fff"/>
    <circle transform="rotate(-90 16.333 89.333)" cx="16.333" cy="89.333" r="1.6667" fill="#fff"/>
    <circle transform="rotate(-90 31 89.333)" cx="31" cy="89.333" r="1.6667" fill="#fff"/>
    <circle transform="rotate(-90 45.667 89.333)" cx="45.667" cy="89.333" r="1.6667" fill="#fff"/>
    <circle transform="rotate(-90 60.333 89.334)" cx="60.333" cy="89.334" r="1.6667" fill="#fff"/>
    <circle transform="rotate(-90 88.667 89.334)" cx="88.667" cy="89.334" r="1.6667" fill="#fff"/>
    <circle transform="rotate(-90 117.67 89.334)" cx="117.67" cy="89.334" r="1.6667" fill="#fff"/>
    <circle transform="rotate(-90 74.667 89.334)" cx="74.667" cy="89.334" r="1.6667" fill="#fff"/>
    <circle transform="rotate(-90 103 89.334)" cx="103" cy="89.334" r="1.6667" fill="#fff"/>
    <circle transform="rotate(-90 132 89.334)" cx="132" cy="89.334" r="1.6667" fill="#fff"/>
    <circle transform="rotate(-90 1.6667 74.667)" cx="1.6667" cy="74.667" r="1.6667" fill="#fff"/>
    <circle transform="rotate(-90 1.6667 31)" cx="1.6667" cy="31" r="1.6667" fill="#fff"/>
    <circle transform="rotate(-90 16.333 74.667)" cx="16.333" cy="74.667" r="1.6667" fill="#fff"/>
    <circle transform="rotate(-90 16.333 31)" cx="16.333" cy="31" r="1.6667" fill="#fff"/>
    <circle transform="rotate(-90 31 74.667)" cx="31" cy="74.667" r="1.6667" fill="#fff"/>
    <circle transform="rotate(-90 31 31)" cx="31" cy="31" r="1.6667" fill="#fff"/>
    <circle transform="rotate(-90 45.667 74.667)" cx="45.667" cy="74.667" r="1.6667" fill="#fff"/>
    <circle transform="rotate(-90 45.667 31)" cx="45.667" cy="31" r="1.6667" fill="#fff"/>
    <circle transform="rotate(-90 60.333 74.667)" cx="60.333" cy="74.667" r="1.6667" fill="#fff"/>
    <circle transform="rotate(-90 60.333 31)" cx="60.333" cy="31" r="1.6667" fill="#fff"/>
    <circle transform="rotate(-90 88.667 74.667)" cx="88.667" cy="74.667" r="1.6667" fill="#fff"/>
    <circle transform="rotate(-90 88.667 31)" cx="88.667" cy="31" r="1.6667" fill="#fff"/>
    <circle transform="rotate(-90 117.67 74.667)" cx="117.67" cy="74.667" r="1.6667" fill="#fff"/>
    <circle transform="rotate(-90 117.67 31)" cx="117.67" cy="31" r="1.6667" fill="#fff"/>
    <circle transform="rotate(-90 74.667 74.667)" cx="74.667" cy="74.667" r="1.6667" fill="#fff"/>
    <circle transform="rotate(-90 74.667 31)" cx="74.667" cy="31" r="1.6667" fill="#fff"/>
    <circle transform="rotate(-90 103 74.667)" cx="103" cy="74.667" r="1.6667" fill="#fff"/>
    <circle transform="rotate(-90 103 31)" cx="103" cy="31" r="1.6667" fill="#fff"/>
    <circle transform="rotate(-90 132 74.667)" cx="132" cy="74.667" r="1.6667" fill="#fff"/>
    <circle transform="rotate(-90 132 31)" cx="132" cy="31" r="1.6667" fill="#fff"/>
    <circle transform="rotate(-90 1.6667 60)" cx="1.6667" cy="60" r="1.6667" fill="#fff"/>
    <circle transform="rotate(-90 1.6667 16.334)" cx="1.6667" cy="16.334" r="1.6667" fill="#fff"/>
    <circle transform="rotate(-90 16.333 60)" cx="16.333" cy="60" r="1.6667" fill="#fff"/>
    <circle transform="rotate(-90 16.333 16.334)" cx="16.333" cy="16.334" r="1.6667" fill="#fff"/>
    <circle transform="rotate(-90 31 60)" cx="31" cy="60" r="1.6667" fill="#fff"/>
    <circle transform="rotate(-90 31 16.334)" cx="31" cy="16.334" r="1.6667" fill="#fff"/>
    <circle transform="rotate(-90 45.667 60)" cx="45.667" cy="60" r="1.6667" fill="#fff"/>
    <circle transform="rotate(-90 45.667 16.334)" cx="45.667" cy="16.334" r="1.6667" fill="#fff"/>
    <circle transform="rotate(-90 60.333 60)" cx="60.333" cy="60" r="1.6667" fill="#fff"/>
    <circle transform="rotate(-90 60.333 16.334)" cx="60.333" cy="16.334" r="1.6667" fill="#fff"/>
    <circle transform="rotate(-90 88.667 60)" cx="88.667" cy="60" r="1.6667" fill="#fff"/>
    <circle transform="rotate(-90 88.667 16.334)" cx="88.667" cy="16.334" r="1.6667" fill="#fff"/>
    <circle transform="rotate(-90 117.67 60)" cx="117.67" cy="60" r="1.6667" fill="#fff"/>
    <circle transform="rotate(-90 117.67 16.334)" cx="117.67" cy="16.334" r="1.6667" fill="#fff"/>
    <circle transform="rotate(-90 74.667 60)" cx="74.667" cy="60" r="1.6667" fill="#fff"/>
    <circle transform="rotate(-90 74.667 16.334)" cx="74.667" cy="16.334" r="1.6667" fill="#fff"/>
    <circle transform="rotate(-90 103 60)" cx="103" cy="60" r="1.6667" fill="#fff"/>
    <circle transform="rotate(-90 103 16.334)" cx="103" cy="16.334" r="1.6667" fill="#fff"/>
    <circle transform="rotate(-90 132 60)" cx="132" cy="60" r="1.6667" fill="#fff"/>
    <circle transform="rotate(-90 132 16.334)" cx="132" cy="16.334" r="1.6667" fill="#fff"/>
    <circle transform="rotate(-90 1.6667 45.334)" cx="1.6667" cy="45.334" r="1.6667" fill="#fff"/>
    <circle transform="rotate(-90 1.6667 1.6668)" cx="1.6667" cy="1.6668" r="1.6667" fill="#fff"/>
    <circle transform="rotate(-90 16.333 45.334)" cx="16.333" cy="45.334" r="1.6667" fill="#fff"/>
    <circle transform="rotate(-90 16.333 1.6668)" cx="16.333" cy="1.6668" r="1.6667" fill="#fff"/>
    <circle transform="rotate(-90 31 45.334)" cx="31" cy="45.334" r="1.6667" fill="#fff"/>
    <circle transform="rotate(-90 31 1.6668)" cx="31" cy="1.6668" r="1.6667" fill="#fff"/>
    <circle transform="rotate(-90 45.667 45.334)" cx="45.667" cy="45.334" r="1.6667" fill="#fff"/>
    <circle transform="rotate(-90 45.667 1.6668)" cx="45.667" cy="1.6668" r="1.6667" fill="#fff"/>
    <circle transform="rotate(-90 60.333 45.334)" cx="60.333" cy="45.334" r="1.6667" fill="#fff"/>
    <circle transform="rotate(-90 60.333 1.6671)" cx="60.333" cy="1.6671" r="1.6667" fill="#fff"/>
    <circle transform="rotate(-90 88.667 45.334)" cx="88.667" cy="45.334" r="1.6667" fill="#fff"/>
    <circle transform="rotate(-90 88.667 1.6671)" cx="88.667" cy="1.6671" r="1.6667" fill="#fff"/>
    <circle transform="rotate(-90 117.67 45.334)" cx="117.67" cy="45.334" r="1.6667" fill="#fff"/>
    <circle transform="rotate(-90 117.67 1.6671)" cx="117.67" cy="1.6671" r="1.6667" fill="#fff"/>
    <circle transform="rotate(-90 74.667 45.334)" cx="74.667" cy="45.334" r="1.6667" fill="#fff"/>
    <circle transform="rotate(-90 74.667 1.6671)" cx="74.667" cy="1.6671" r="1.6667" fill="#fff"/>
    <circle transform="rotate(-90 103 45.334)" cx="103" cy="45.334" r="1.6667" fill="#fff"/>
    <circle transform="rotate(-90 103 1.6671)" cx="103" cy="1.6671" r="1.6667" fill="#fff"/>
    <circle transform="rotate(-90 132 45.334)" cx="132" cy="45.334" r="1.6667" fill="#fff"/>
    <circle transform="rotate(-90 132 1.6671)" cx="132" cy="1.6671" r="1.6667" fill="#fff"/>
</svg>
