<?xml version="1.0" encoding="UTF-8"?>
<svg width="35" height="35" fill="none" viewBox="0 0 52 52" xmlns="http://www.w3.org/2000/svg">
    <path d="m44.931 11.7h-6.0125c1.625-0.7313 2.8438-1.7063 3.3313-3.0063 0.65-1.7062 0-3.4938-1.95-5.3625-2.1125-2.0312-4.3063-2.7625-6.5-2.1938-3.8188 0.975-6.3375 5.9312-7.5563 8.8562-1.1375-2.925-3.6562-7.8812-7.5562-8.8562-2.1938-0.56875-4.3875 0.1625-6.5 2.1938-1.95 1.8688-2.6 3.6562-1.95 5.3625 0.4875 1.3 1.7875 2.275 3.3312 3.0063h-6.5c-2.0312 0-3.6562 1.625-3.6562 3.6562v6.175c0 2.0313 1.625 3.6563 3.6562 3.6563h0.65v21.044c0 2.6 2.1125 4.7938 4.7938 4.7938h27.625c2.6 0 4.7937-2.1125 4.7937-4.7938v-21.044c2.0313 0 3.6563-1.625 3.6563-3.6563v-6.175c-0.0813-2.0312-1.7063-3.6562-3.6563-3.6562zm-10.4-7.7188c0.2438-0.08125 0.4875-0.08125 0.65-0.08125 0.975 0 2.0313 0.4875 3.0875 1.625 0.4875 0.4875 1.5438 1.5438 1.3 2.275-0.5687 1.5438-5.6062 2.8437-10.644 3.25 1.1375-2.6813 3.25-6.5 5.6062-7.0688zm-21.531 3.7375c-0.2438-0.73125 0.8125-1.7875 1.3-2.275 1.1375-1.0562 2.1125-1.625 3.0875-1.625 0.2437 0 0.4875 0 0.65 0.08125 2.4375 0.65 4.4687 4.3875 5.6062 7.0687-5.0375-0.4062-10.075-1.7062-10.644-3.25zm29.006 38.512c0 1.0563-0.8937 1.95-1.95 1.95h-27.625c-1.0562 0-1.95-0.8937-1.95-1.95v-21.044h31.444v21.044h0.0812zm3.6563-24.7c0 0.4875-0.325 0.8125-0.8125 0.8125h-37.781c-0.40625 0-0.8125-0.325-0.8125-0.8125v-6.175c0-0.4062 0.40625-0.8125 0.8125-0.8125h37.781c0.4062 0 0.8125 0.325 0.8125 0.8125v6.175z"
          fill="#fff"/>
</svg>
