<?xml version="1.0" encoding="UTF-8"?>
<svg fill="none" viewBox="0 0 35 35" xmlns="http://www.w3.org/2000/svg">
    <path d="m29.531 21.656-0.8749-0.4921 1.039-0.6016c1.0391-0.6563 1.6406-1.75 1.5859-2.9531-0.0546-1.2031-0.6562-2.2969-1.75-2.8985l-1.6406-0.9296 1.75-1.0938c1.0391-0.6562 1.6406-1.75 1.586-2.9531-0.0547-1.2031-0.6563-2.2969-1.75-2.8984l-10.227-5.7422c-1.0391-0.60156-2.2969-0.54688-3.3359 0l-10.5 6.125c-1.0391 0.60156-1.6953 1.6953-1.6953 2.8984 0 1.2031 0.65625 2.2969 1.6953 2.8984l1.6953 0.9844-1.6953 0.9844c-1.0391 0.6015-1.6953 1.6953-1.6953 2.8984s0.60156 2.2969 1.6953 2.8984l0.98438 0.5469-0.92969 0.5469c-1.0391 0.6016-1.6953 1.6953-1.6953 2.8984 0 1.2032 0.60156 2.2969 1.6953 2.8985l10.445 6.0156c0.5468 0.3281 1.0937 0.4375 1.6953 0.4375 0.6015 0 1.2031-0.1641 1.75-0.4922l10.336-6.3437c1.0391-0.6563 1.6406-1.75 1.5859-2.9532-0.0546-1.039-0.6562-2.1328-1.75-2.6797zm-23.898-11.539c0-0.54689 0.27344-0.98439 0.71094-1.2578l10.5-6.0703c0.2187-0.10937 0.4921-0.21875 0.7109-0.21875 0.2187 0 0.4922 0.05469 0.7109 0.16406l10.281 5.7422c0.4375 0.27344 0.7109 0.71094 0.7656 1.2578 0 0.54682-0.2734 0.98442-0.7109 1.2578l-10.281 6.3984c-0.4375 0.2735-1.0391 0.2735-1.4765 0l-10.445-6.0156c-0.49219-0.2188-0.76563-0.7109-0.76563-1.2578zm0 7.8203c0-0.5469 0.27344-0.9844 0.71094-1.2578l2.6797-1.5313 6.836 3.9375c0.5468 0.3282 1.0937 0.4375 1.6953 0.4375 0.6015 0 1.2031-0.164 1.75-0.4922l6.7265-4.1562 2.5704 1.4219c0.4375 0.2734 0.7109 0.7109 0.7656 1.2578 0 0.5469-0.2734 0.9844-0.7109 1.2578l-10.336 6.4531c-0.4375 0.2735-1.0391 0.2735-1.4765 0l-10.445-6.0156c-0.49219-0.2734-0.76563-0.7656-0.76563-1.3125zm23.023 7.875-10.336 6.3984c-0.4375 0.2735-1.0391 0.2735-1.4765 0l-10.445-6.0156c-0.4375-0.2734-0.71094-0.7109-0.71094-1.2578s0.27344-0.9844 0.71094-1.2578l1.9141-1.0938 7.5469 4.375c0.5468 0.3282 1.0937 0.4375 1.6953 0.4375 0.6015 0 1.2031-0.164 1.75-0.4922l7.4922-4.6484 1.8594 1.0391c0.4375 0.2734 0.7109 0.7109 0.7656 1.2578-0.0547 0.4922-0.3281 0.9844-0.7656 1.2578z"
          fill="#fff"/>
</svg>
