<?xml version="1.0" encoding="UTF-8"?>
<svg width="35" height="35" fill="none" viewBox="0 0 52 52" xmlns="http://www.w3.org/2000/svg">
    <path d="m49.806 23.319-5.9312-5.9312c-0.5687-0.5688-1.4625-0.5688-2.0312 0-0.5688 0.5687-0.5688 1.4625 0 2.0312l5.1187 5.2h-19.5v-19.744l5.1187 5.2c0.5688 0.5687 1.4625 0.5687 2.0313 0 0.5687-0.56877 0.5687-1.4625 0-2.0313l-5.9313-5.9312c-0.7312-0.73125-1.7062-1.1375-2.6812-1.1375-1.0562 0-1.95 0.40625-2.6812 1.1375l-5.9313 5.9312c-0.5688 0.56875-0.5688 1.4625 0 2.0313 0.2437 0.2437 0.65 0.4062 0.975 0.4062s0.7312-0.1625 0.975-0.4062l5.2812-5.2v19.663h-19.662l5.1188-5.2c0.5687-0.5688 0.5687-1.4625 0-2.0313-0.56875-0.5687-1.4625-0.5687-2.0312 0l-5.9312 5.9313c-1.4625 1.4625-1.4625 3.9 0 5.3625l5.9312 5.9312c0.24375 0.2438 0.65 0.4063 0.975 0.4063s0.73125-0.1625 0.975-0.4063c0.56875-0.5687 0.56875-1.4625 0-2.0312l-5.2-5.2h19.663v19.825l-5.2-5.2c-0.5688-0.5688-1.4625-0.5688-2.0313 0-0.5687 0.5687-0.5687 1.4625 0 2.0312l5.9312 5.9313c0.7313 0.7312 1.7063 1.1375 2.6813 1.1375 1.0562 0 1.95-0.4063 2.6812-1.1375l5.9313-5.9313c0.5688-0.5687 0.5688-1.4625 0-2.0312-0.5687-0.5688-1.4625-0.5688-2.0312 0l-4.9563 5.2v-19.744h19.581l-5.2 5.2c-0.5688 0.5688-0.5688 1.4625 0 2.0313 0.2437 0.2437 0.65 0.4062 0.975 0.4062s0.7312-0.1625 0.975-0.4062l5.9312-5.9313c1.5438-1.4625 1.5437-3.9 0.0812-5.3625z"
          fill="#fff"/>
</svg>
